<svg width="28" height="28" viewBox="0 0 28 28" fill="none" xmlns="http://www.w3.org/2000/svg">
<path d="M14.9237 18.4324L16.5928 16.7623C19.3581 13.9953 19.3581 9.50904 16.5928 6.74201C13.8275 3.97499 9.34403 3.97499 6.57874 6.74201L3.24072 10.0821C0.475424 12.8492 0.475424 17.3353 3.24072 20.1024C4.52311 21.3855 6.175 22.0736 7.85367 22.1667" stroke="#6FD547" style="stroke:#6FD547;stroke:color(display-p3 0.4335 0.8365 0.2775);stroke-opacity:1;" stroke-width="2" stroke-linecap="round"/>
<path opacity="0.5" d="M13.0763 9.56766L11.4072 11.2377C8.64193 14.0047 8.64193 18.491 11.4072 21.258C14.1725 24.025 18.656 24.025 21.4213 21.258L24.7593 17.9179C27.5246 15.1508 27.5246 10.6646 24.7593 7.89761C23.4769 6.61442 21.825 5.92631 20.1463 5.83325" stroke="#6FD547" style="stroke:#6FD547;stroke:color(display-p3 0.4335 0.8365 0.2775);stroke-opacity:1;" stroke-width="2" stroke-linecap="round"/>
</svg>
